<svg id="Layer_1" data-name="Layer 1" xmlns="http://www.w3.org/2000/svg" viewBox="0 0 600 600"><defs><style>.cls-1{fill:#fff;fill-rule:evenodd;}</style></defs><title>takecare_logo</title><path class="cls-1" d="M445.83,134.42c-.24,20.05-.21,43.85-.43,61.52-48.65,16.79-71.23-45.59-30.41-55.3-64.62-6.06-44.07,93,29.86,75.07L444.14,275c-29.16,3.23-57.55-5.57-68.05-25l-.29,24.16-59.09-.71,1.66-138.41,59.09.71-.13,11C389.6,134.53,419.36,134,445.83,134.42Z"/><path class="cls-1" d="M141.62,192.29l.71-59.33L3.92,131.3,3.2,190.62c11.62.14,29.69.43,37.86.53C19.35,202.52.45,237.6,2.25,269.84c21.11.26,53.17.51,77,.8-11.46-47.24,6.2-79,42.86-78.59Z"/><path class="cls-1" d="M123.41,319.54l-.71,59.32c-49.95,15.72-76.16-50-27.9-55.27C22,311.71,49.64,423.3,122.46,398.64L121.75,458c-70.18,9.71-126.55-15.27-126.56-74C-4.82,323,51.91,308.5,123.41,319.54Z"/><path class="cls-1" d="M193.14,133.57l65.91.8C275.83,179.5,291.27,229,308.8,273.42L242,272.59c-6.1-19.11-11-33.15-17.55-52.86l-.64,52.65c-36.3,3.57-73.76-.17-80.36-27.34C133.28,203.17,174.55,159.83,193.14,133.57ZM220.75,213c-9.53-26.6-17.28-48.32-27.09-75.18C176.09,162.16,181.53,217.59,220.75,213Z"/><path class="cls-1" d="M475.19,137l129.62,1.56-.71,59.32c-53.91,11.46-73.57-47.31-31.65-55.32-45.58-.55-52.86,56.81,3.74,63.77-56.46,4.81-57.19,65.31-3.08,66-39.09-8.57-29.61-73.39,30.75-54.65l-.72,59.32-129.62-1.56Z"/><path class="cls-1" d="M190.88,321.34l65.91.79c16.78,45.14,32.22,94.64,49.75,139.05l-66.79-.82c-6.1-19.12-11-33.16-17.55-52.86l-.64,52.64c-36.3,3.57-73.76-.16-80.36-27.34C131,390.93,172.29,347.59,190.88,321.34Zm27.61,79.43c-9.52-26.6-17.28-48.32-27.08-75.18C173.84,349.92,179.27,405.35,218.49,400.77Z"/><path class="cls-1" d="M472.93,324.73l129.62,1.56-.71,59.32c-53.91,11.47-73.57-47.31-31.65-55.32-45.58-.54-52.86,56.82,3.74,63.77-56.46,4.81-57.19,65.32-3.08,66-39.09-8.57-29.61-73.38,30.75-54.65l-.71,59.32-129.63-1.56Z"/><path class="cls-1" d="M396.91,391c28.64.56,65-8,65.26-30.25.52-43.83-90.16-41.94-146.54-37.86L314,461.27l60.12.72.86-71.45c26.7,5.26,11.77,40.28,21.29,57.53,10.88,19.74,34.55,16.59,61.35,13.93l.77-63.72C439,404.52,408.43,404.34,396.91,391ZM375,386.29c.24-20.51.35-37.63.59-58.14C408.24,324.15,404.78,391.59,375,386.29Z"/></svg>