<svg id="Layer_1" data-name="Layer 1" xmlns="http://www.w3.org/2000/svg" viewBox="0 0 609.62 333.43"><defs><style>.cls-1{fill:#fff;}</style></defs><title>takecare_logo_rect</title><path class="cls-1" d="M457.83,3.12c-.24,20.05-.21,43.85-.43,61.52C408.75,81.43,386.17,19.05,427,9.34c-64.62-6.06-44.07,93,29.86,75.07l-.71,59.29c-29.16,3.23-57.55-5.57-68.05-25l-.29,24.16-59.09-.71L330.37,3.74l59.09.71-.13,11C401.6,3.23,431.36,2.7,457.83,3.12Z" transform="translate(-7.19)"/><path class="cls-1" d="M153.62,61l.71-59.33L15.92,0,15.2,59.32c11.62.14,29.69.43,37.86.53C31.35,71.22,12.45,106.3,14.25,138.54c21.11.26,53.17.51,77,.8-11.46-47.24,6.2-79,42.86-78.59Z" transform="translate(-7.19)"/><path class="cls-1" d="M135.41,188.24l-.71,59.32c-49.95,15.72-76.16-50-27.9-55.27-72.8-11.88-45.16,99.71,27.66,75l-.71,59.36C63.57,336.41,7.2,311.43,7.19,252.7,7.18,191.7,63.91,177.2,135.41,188.24Z" transform="translate(-7.19)"/><path class="cls-1" d="M205.14,2.27l65.91.8C287.83,48.2,303.27,97.7,320.8,142.12l-66.8-.83c-6.1-19.11-11-33.15-17.55-52.86l-.64,52.65c-36.3,3.57-73.76-.17-80.36-27.34C145.28,71.87,186.55,28.53,205.14,2.27ZM232.75,81.7c-9.53-26.6-17.28-48.32-27.09-75.18C188.09,30.86,193.53,86.29,232.75,81.7Z" transform="translate(-7.19)"/><path class="cls-1" d="M487.19,5.7,616.81,7.26l-.71,59.32C562.19,78,542.53,19.27,584.45,11.26c-45.58-.55-52.86,56.81,3.74,63.77-56.46,4.81-57.19,65.31-3.08,66C546,132.46,555.5,67.64,615.86,86.38l-.72,59.32-129.62-1.56Z" transform="translate(-7.19)"/><path class="cls-1" d="M202.88,190l65.91.79c16.78,45.14,32.22,94.64,49.75,139l-66.79-.82c-6.1-19.12-11-33.16-17.55-52.86l-.64,52.64c-36.3,3.57-73.76-.16-80.36-27.34C143,259.63,184.29,216.29,202.88,190Zm27.61,79.43c-9.52-26.6-17.28-48.32-27.08-75.18C185.84,218.62,191.27,274.05,230.49,269.47Z" transform="translate(-7.19)"/><path class="cls-1" d="M484.93,193.43,614.55,195l-.71,59.32C559.93,265.78,540.27,207,582.19,199c-45.58-.54-52.86,56.82,3.74,63.77-56.46,4.81-57.19,65.32-3.08,66-39.09-8.57-29.61-73.38,30.75-54.65l-.71,59.32-129.63-1.56Z" transform="translate(-7.19)"/><path class="cls-1" d="M408.91,259.7c28.64.56,65-8,65.26-30.25.52-43.83-90.16-41.94-146.54-37.86L326,330l60.12.72.86-71.45c26.7,5.26,11.77,40.28,21.29,57.53,10.88,19.74,34.55,16.59,61.35,13.93l.77-63.72C451,273.22,420.43,273,408.91,259.7ZM387,255c.24-20.51.35-37.63.59-58.14C420.24,192.85,416.78,260.29,387,255Z" transform="translate(-7.19)"/></svg>